<svg width="111" height="35" viewBox="0 0 111 35" fill="none" xmlns="http://www.w3.org/2000/svg">
<path d="M0 19.2164H2.21444V22.796L2.0792 23.9615H2.21444C2.41729 23.6174 2.73283 23.3233 3.16107 23.0791C3.5893 22.8349 4.11896 22.7128 4.75005 22.7128C5.27971 22.7128 5.7812 22.8238 6.25452 23.0458C6.7391 23.2567 7.1617 23.5564 7.52232 23.9448C7.89421 24.3222 8.18722 24.7773 8.40134 25.3101C8.61545 25.8429 8.72251 26.4256 8.72251 27.0583C8.72251 27.6909 8.61545 28.2737 8.40134 28.8065C8.18722 29.3392 7.89421 29.7999 7.52232 30.1883C7.1617 30.5657 6.7391 30.8654 6.25452 31.0874C5.7812 31.2983 5.27971 31.4037 4.75005 31.4037C4.11896 31.4037 3.5893 31.2817 3.16107 31.0375C2.73283 30.7933 2.41729 30.4991 2.21444 30.155H2.0792V31.1374H0V19.2164ZM4.29364 29.3892C4.58664 29.3892 4.86275 29.3337 5.12194 29.2227C5.39241 29.1117 5.62906 28.9563 5.83191 28.7565C6.03476 28.5567 6.19817 28.3125 6.32213 28.0239C6.44609 27.7353 6.50808 27.4135 6.50808 27.0583C6.50808 26.7031 6.44609 26.3812 6.32213 26.0926C6.19817 25.804 6.03476 25.5598 5.83191 25.36C5.62906 25.1602 5.39241 25.0049 5.12194 24.8939C4.86275 24.7829 4.58664 24.7274 4.29364 24.7274C4.00064 24.7274 3.7189 24.7829 3.44844 24.8939C3.18924 24.9938 2.95822 25.1436 2.75537 25.3434C2.55252 25.5432 2.38911 25.7874 2.26515 26.076C2.14119 26.3646 2.0792 26.692 2.0792 27.0583C2.0792 27.4246 2.14119 27.752 2.26515 28.0406C2.38911 28.3292 2.55252 28.5734 2.75537 28.7732C2.95822 28.9729 3.18924 29.1283 3.44844 29.2393C3.7189 29.3392 4.00064 29.3892 4.29364 29.3892Z" fill="black" fill-opacity="0.4"/>
<path d="M15.7838 30.0718H15.6486C15.3894 30.4825 15.04 30.8099 14.6005 31.0541C14.161 31.2872 13.6595 31.4037 13.0961 31.4037C12.048 31.4037 11.2648 31.0874 10.7464 30.4547C10.2393 29.8221 9.9857 28.9785 9.9857 27.924V22.9792H12.2001V27.6576C12.2001 28.2459 12.3297 28.6844 12.5889 28.9729C12.8594 29.2504 13.2482 29.3892 13.7553 29.3892C14.0596 29.3892 14.3244 29.3281 14.5498 29.206C14.7865 29.0728 14.9837 28.9008 15.1414 28.6899C15.3105 28.4679 15.4345 28.2126 15.5133 27.924C15.6035 27.6243 15.6486 27.308 15.6486 26.975V22.9792H17.863V31.1374H15.7838V30.0718Z" fill="black" fill-opacity="0.4"/>
<path d="M23.4977 35C22.9117 35 22.3877 34.9223 21.9257 34.7669C21.4749 34.6226 21.0805 34.4284 20.7424 34.1842C20.4043 33.9511 20.1226 33.6903 19.8972 33.4017C19.6718 33.1131 19.5084 32.8245 19.407 32.5359L21.52 31.7034C21.6777 32.1363 21.9369 32.4693 22.2976 32.7024C22.6582 32.9466 23.0582 33.0687 23.4977 33.0687C24.1965 33.0687 24.7487 32.8522 25.1544 32.4194C25.56 31.9976 25.7629 31.4037 25.7629 30.6379V30.0718H25.6277C25.3685 30.427 25.0248 30.71 24.5965 30.9209C24.1795 31.1207 23.6837 31.2206 23.109 31.2206C22.6131 31.2206 22.1285 31.1207 21.6552 30.9209C21.1932 30.7211 20.7818 30.4381 20.4212 30.0718C20.0606 29.6944 19.7676 29.2449 19.5422 28.7232C19.3168 28.2015 19.2041 27.6188 19.2041 26.975C19.2041 26.3313 19.3168 25.7485 19.5422 25.2268C19.7676 24.6941 20.0606 24.2445 20.4212 23.8783C20.7818 23.5009 21.1932 23.2123 21.6552 23.0125C22.1285 22.8127 22.6131 22.7128 23.109 22.7128C23.6837 22.7128 24.1795 22.8182 24.5965 23.0291C25.0248 23.2289 25.3685 23.5064 25.6277 23.8616H25.7629V22.9792H27.8759V30.5546C27.8759 31.2428 27.7689 31.8588 27.5547 32.4027C27.3406 32.9577 27.042 33.4239 26.6588 33.8012C26.2757 34.1897 25.8136 34.4839 25.2727 34.6837C24.743 34.8946 24.1514 35 23.4977 35ZM23.5823 29.256C23.8527 29.256 24.1176 29.206 24.3768 29.1061C24.6472 29.0062 24.8839 28.8619 25.0867 28.6733C25.2896 28.4735 25.453 28.2348 25.577 27.9573C25.7009 27.6687 25.7629 27.3413 25.7629 26.975C25.7629 26.6087 25.7009 26.2813 25.577 25.9927C25.453 25.7041 25.2896 25.4655 25.0867 25.2768C24.8839 25.077 24.6472 24.9272 24.3768 24.8273C24.1176 24.7274 23.8527 24.6774 23.5823 24.6774C23.3118 24.6774 23.047 24.7274 22.7878 24.8273C22.5286 24.9272 22.2976 25.077 22.0947 25.2768C21.8919 25.4766 21.7285 25.7208 21.6045 26.0094C21.4805 26.2869 21.4185 26.6087 21.4185 26.975C21.4185 27.3413 21.4805 27.6687 21.6045 27.9573C21.7285 28.2348 21.8919 28.4735 22.0947 28.6733C22.2976 28.8619 22.5286 29.0062 22.7878 29.1061C23.047 29.206 23.3118 29.256 23.5823 29.256Z" fill="black" fill-opacity="0.4"/>
<path d="M30.9978 21.7971C30.8062 21.7971 30.6202 21.7638 30.4399 21.6972C30.2709 21.6195 30.1187 21.5196 29.9835 21.3975C29.8595 21.2643 29.7581 21.1145 29.6792 20.948C29.6116 20.7815 29.5778 20.5983 29.5778 20.3985C29.5778 20.1988 29.6116 20.0156 29.6792 19.8491C29.7581 19.6826 29.8595 19.5383 29.9835 19.4162C30.1187 19.283 30.2709 19.1831 30.4399 19.1165C30.6202 19.0388 30.8062 19 30.9978 19C31.3922 19 31.7303 19.1387 32.012 19.4162C32.2937 19.6826 32.4346 20.0101 32.4346 20.3985C32.4346 20.787 32.2937 21.12 32.012 21.3975C31.7303 21.6639 31.3922 21.7971 30.9978 21.7971ZM29.899 31.1374V22.9792H32.1134V31.1374H29.899Z" fill="black" fill-opacity="0.4"/>
<path d="M36.2176 24.0447H36.3528C36.612 23.6341 36.9613 23.3122 37.4008 23.0791C37.8403 22.8349 38.3418 22.7128 38.9053 22.7128C39.4237 22.7128 39.8801 22.796 40.2745 22.9625C40.669 23.129 40.9901 23.3677 41.2381 23.6785C41.4973 23.9781 41.6888 24.3444 41.8128 24.7773C41.948 25.1991 42.0157 25.6708 42.0157 26.1925V31.1374H39.8012V26.4589C39.8012 25.8706 39.666 25.4377 39.3955 25.1602C39.1363 24.8717 38.7532 24.7274 38.246 24.7274C37.9418 24.7274 37.6713 24.794 37.4347 24.9272C37.2093 25.0493 37.012 25.2213 36.843 25.4433C36.6852 25.6542 36.5613 25.9095 36.4711 26.2092C36.3922 26.4977 36.3528 26.8085 36.3528 27.1415V31.1374H34.1383V22.9792H36.2176V24.0447Z" fill="black" fill-opacity="0.4"/>
<path d="M45.1804 31.2373C44.7747 31.2373 44.4254 31.0985 44.1324 30.821C43.8506 30.5324 43.7098 30.1883 43.7098 29.7888C43.7098 29.3892 43.8506 29.0506 44.1324 28.7732C44.4254 28.4957 44.7747 28.3569 45.1804 28.3569C45.5861 28.3569 45.9298 28.4957 46.2116 28.7732C46.4933 29.0506 46.6342 29.3892 46.6342 29.7888C46.6342 30.1883 46.4933 30.5324 46.2116 30.821C45.9298 31.0985 45.5861 31.2373 45.1804 31.2373Z" fill="black" fill-opacity="0.4"/>
<path d="M51.6641 31.4037C51.1231 31.4037 50.6385 31.3371 50.2103 31.204C49.7933 31.0708 49.4271 30.8987 49.1115 30.6878C48.8073 30.4658 48.5481 30.2161 48.334 29.9386C48.1198 29.65 47.9564 29.3614 47.8437 29.0728L49.8215 28.2404C50.0131 28.6622 50.2667 28.9785 50.5822 29.1894C50.909 29.3892 51.2696 29.4891 51.6641 29.4891C52.0698 29.4891 52.3909 29.4169 52.6276 29.2726C52.8643 29.1283 52.9826 28.9563 52.9826 28.7565C52.9826 28.5345 52.8812 28.3569 52.6783 28.2237C52.4867 28.0794 52.1487 27.9518 51.6641 27.8408L50.4977 27.5911C50.2385 27.5356 49.968 27.4468 49.6863 27.3247C49.4158 27.2026 49.1679 27.0472 48.9425 26.8585C48.7171 26.6698 48.5312 26.4422 48.3847 26.1759C48.2382 25.9095 48.1649 25.5987 48.1649 25.2435C48.1649 24.8439 48.2494 24.4887 48.4185 24.1779C48.5988 23.8672 48.8411 23.6063 49.1454 23.3954C49.4496 23.1734 49.8046 23.0069 50.2103 22.8959C50.6273 22.7738 51.0724 22.7128 51.5457 22.7128C52.3346 22.7128 53.0389 22.8682 53.6587 23.179C54.2786 23.4787 54.735 23.9615 55.028 24.6275L53.1178 25.3933C52.96 25.0715 52.729 24.8384 52.4247 24.6941C52.1205 24.5498 51.8162 24.4776 51.5119 24.4776C51.1964 24.4776 50.9203 24.5442 50.6836 24.6774C50.447 24.7995 50.3286 24.9605 50.3286 25.1602C50.3286 25.3489 50.4244 25.4988 50.616 25.6098C50.8189 25.7208 51.0893 25.8207 51.4274 25.9095L52.6952 26.2092C53.5404 26.4089 54.1659 26.7308 54.5716 27.1748C54.9885 27.6077 55.197 28.1238 55.197 28.7232C55.197 29.0784 55.1125 29.4169 54.9435 29.7388C54.7744 30.0607 54.5321 30.3493 54.2166 30.6046C53.9123 30.8488 53.5404 31.043 53.1009 31.1873C52.6727 31.3316 52.1937 31.4037 51.6641 31.4037Z" fill="black" fill-opacity="0.4"/>
<path d="M60.5604 22.7128C61.2027 22.7128 61.7887 22.8238 62.3184 23.0458C62.8593 23.2567 63.3214 23.5564 63.7045 23.9448C64.099 24.3222 64.4032 24.7773 64.6173 25.3101C64.8427 25.8429 64.9554 26.4256 64.9554 27.0583C64.9554 27.6909 64.8427 28.2737 64.6173 28.8065C64.4032 29.3392 64.099 29.7999 63.7045 30.1883C63.3214 30.5657 62.8593 30.8654 62.3184 31.0874C61.7887 31.2983 61.2027 31.4037 60.5604 31.4037C59.918 31.4037 59.3264 31.2983 58.7854 31.0874C58.2558 30.8654 57.7937 30.5657 57.3993 30.1883C57.0161 29.7999 56.7119 29.3392 56.4865 28.8065C56.2724 28.2737 56.1653 27.6909 56.1653 27.0583C56.1653 26.4256 56.2724 25.8429 56.4865 25.3101C56.7119 24.7773 57.0161 24.3222 57.3993 23.9448C57.7937 23.5564 58.2558 23.2567 58.7854 23.0458C59.3264 22.8238 59.918 22.7128 60.5604 22.7128ZM60.5604 29.3892C60.8421 29.3892 61.1126 29.3392 61.3718 29.2393C61.6422 29.1283 61.8789 28.9729 62.0817 28.7732C62.2846 28.5734 62.4424 28.3292 62.5551 28.0406C62.679 27.752 62.741 27.4246 62.741 27.0583C62.741 26.692 62.679 26.3646 62.5551 26.076C62.4424 25.7874 62.2846 25.5432 62.0817 25.3434C61.8789 25.1436 61.6422 24.9938 61.3718 24.8939C61.1126 24.7829 60.8421 24.7274 60.5604 24.7274C60.2674 24.7274 59.9913 24.7829 59.7321 24.8939C59.4729 24.9938 59.2419 25.1436 59.039 25.3434C58.8362 25.5432 58.6728 25.7874 58.5488 26.076C58.4361 26.3646 58.3797 26.692 58.3797 27.0583C58.3797 27.4246 58.4361 27.752 58.5488 28.0406C58.6728 28.3292 58.8362 28.5734 59.039 28.7732C59.2419 28.9729 59.4729 29.1283 59.7321 29.2393C59.9913 29.3392 60.2674 29.3892 60.5604 29.3892Z" fill="black" fill-opacity="0.4"/>
<path d="M72.419 24.8439H69.2917V31.1374H67.0773V24.8439H65.5897V22.9792H67.0773V22.18C67.0773 21.6805 67.1505 21.2421 67.2971 20.8647C67.4548 20.4762 67.6746 20.1544 67.9563 19.8991C68.238 19.6327 68.5705 19.4329 68.9537 19.2997C69.3368 19.1554 69.7594 19.0832 70.2215 19.0832C70.4468 19.0832 70.6272 19.0943 70.7624 19.1165C70.8976 19.1387 71.0272 19.172 71.1512 19.2164L71.0159 21.2643C70.9371 21.231 70.8469 21.2033 70.7455 21.1811C70.6441 21.1589 70.5145 21.1478 70.3567 21.1478C70.0299 21.1478 69.7707 21.2532 69.5791 21.4641C69.3875 21.675 69.2917 21.9636 69.2917 22.3299V22.9792H72.419V20.4818H74.6334V22.9792H76.6619V24.8439H74.6334V28.0073C74.6334 28.196 74.6503 28.3736 74.6841 28.5401C74.7292 28.6955 74.8081 28.8286 74.9208 28.9396C75.0786 29.1172 75.304 29.206 75.597 29.206C75.7885 29.206 75.9407 29.1894 76.0534 29.1561C76.1661 29.1117 76.2731 29.0562 76.3745 28.9896L77 30.9043C76.7408 31.0264 76.4591 31.1152 76.1548 31.1707C75.8618 31.2373 75.535 31.2705 75.1744 31.2705C74.7574 31.2705 74.3799 31.2095 74.0418 31.0874C73.715 30.9542 73.4389 30.7766 73.2135 30.5546C72.6838 30.0552 72.419 29.3448 72.419 28.4235V24.8439Z" fill="black" fill-opacity="0.4"/>
<path fill-rule="evenodd" clip-rule="evenodd" d="M86 19C84.3431 19 83 20.3431 83 22V32C83 33.6569 84.3431 35 86 35H108C109.657 35 111 33.6569 111 32V22C111 20.3431 109.657 19 108 19H86ZM86 20C84.8954 20 84 20.8954 84 22V32C84 33.1046 84.8954 34 86 34H108C109.105 34 110 33.1046 110 32V22C110 20.8954 109.105 20 108 20H86Z" fill="#999999"/>
<path d="M87.5493 29.7486V28.7713C87.8723 28.4538 88.1707 28.1582 88.4444 27.8844C88.5594 27.7694 88.6771 27.6517 88.7975 27.5313C88.918 27.4108 89.0302 27.2986 89.1342 27.1946C89.2383 27.0906 89.3313 26.9975 89.4135 26.9154C89.4956 26.8278 89.5585 26.7593 89.6023 26.7101C89.6899 26.606 89.7666 26.513 89.8323 26.4308C89.9035 26.3487 89.9582 26.2693 89.9965 26.1927C90.0403 26.1106 90.0732 26.0312 90.0951 25.9545C90.117 25.8724 90.1279 25.7848 90.1279 25.6917C90.1279 25.5111 90.0568 25.355 89.9144 25.2236C89.7721 25.0868 89.5777 25.0183 89.3313 25.0183C89.085 25.0183 88.8934 25.0895 88.7565 25.2318C88.6196 25.3687 88.5265 25.5247 88.4773 25.6999L87.5 25.2975C87.5438 25.1497 87.615 24.9992 87.7135 24.8459C87.8121 24.6871 87.938 24.5475 88.0913 24.427C88.2446 24.3011 88.4253 24.1998 88.6333 24.1232C88.8468 24.0411 89.085 24 89.3478 24C89.6325 24 89.8898 24.0438 90.1197 24.1314C90.3497 24.2135 90.544 24.3285 90.7028 24.4763C90.8616 24.6241 90.9847 24.7993 91.0723 25.0019C91.1599 25.199 91.2037 25.4125 91.2037 25.6425C91.2037 25.9928 91.1161 26.3159 90.9409 26.6115C90.7712 26.9017 90.5632 27.1727 90.3168 27.4245L89.6106 28.1308C89.4244 28.3169 89.2136 28.525 88.9782 28.7549L89.0111 28.8042H91.2859V29.7486H87.5493Z" fill="#999999"/>
<path d="M94.3648 29.88C94.0035 29.88 93.6777 29.8061 93.3876 29.6583C93.0974 29.505 92.8483 29.2969 92.6403 29.0341C92.4377 28.7713 92.2816 28.462 92.1722 28.1061C92.0627 27.7448 92.0079 27.3561 92.0079 26.94C92.0079 26.5239 92.0627 26.1379 92.1722 25.7821C92.2816 25.4207 92.4377 25.1087 92.6403 24.8459C92.8483 24.5831 93.0974 24.3778 93.3876 24.2299C93.6777 24.0766 94.0035 24 94.3648 24C94.7262 24 95.0519 24.0766 95.3421 24.2299C95.6323 24.3778 95.8786 24.5831 96.0812 24.8459C96.2892 25.1087 96.448 25.4207 96.5575 25.7821C96.667 26.1379 96.7218 26.5239 96.7218 26.94C96.7218 27.3561 96.667 27.7448 96.5575 28.1061C96.448 28.462 96.2892 28.7713 96.0812 29.0341C95.8786 29.2969 95.6323 29.505 95.3421 29.6583C95.0519 29.8061 94.7262 29.88 94.3648 29.88ZM94.3648 28.8617C94.5619 28.8617 94.7399 28.8151 94.8986 28.7221C95.0574 28.6235 95.1915 28.4894 95.301 28.3197C95.416 28.1445 95.5009 27.9392 95.5556 27.7037C95.6158 27.4683 95.646 27.2137 95.646 26.94C95.646 26.6608 95.6158 26.4062 95.5556 26.1763C95.5009 25.9408 95.416 25.7383 95.301 25.5685C95.1915 25.3934 95.0574 25.2592 94.8986 25.1661C94.7399 25.0676 94.5619 25.0183 94.3648 25.0183C94.1623 25.0183 93.9816 25.0676 93.8228 25.1661C93.6641 25.2592 93.5299 25.3934 93.4204 25.5685C93.3109 25.7383 93.2261 25.9408 93.1658 26.1763C93.1111 26.4062 93.0837 26.6608 93.0837 26.94C93.0837 27.2137 93.1111 27.4683 93.1658 27.7037C93.2261 27.9392 93.3109 28.1445 93.4204 28.3197C93.5299 28.4894 93.6641 28.6235 93.8228 28.7221C93.9816 28.8151 94.1623 28.8617 94.3648 28.8617Z" fill="#999999"/>
<path d="M97.3816 29.7486V28.7713C97.7046 28.4538 98.003 28.1582 98.2767 27.8844C98.3917 27.7694 98.5094 27.6517 98.6298 27.5313C98.7503 27.4108 98.8625 27.2986 98.9665 27.1946C99.0706 27.0906 99.1636 26.9975 99.2458 26.9154C99.3279 26.8278 99.3908 26.7593 99.4346 26.7101C99.5222 26.606 99.5989 26.513 99.6646 26.4308C99.7358 26.3487 99.7905 26.2693 99.8288 26.1927C99.8726 26.1106 99.9055 26.0312 99.9274 25.9545C99.9493 25.8724 99.9602 25.7848 99.9602 25.6917C99.9602 25.5111 99.8891 25.355 99.7467 25.2236C99.6044 25.0868 99.41 25.0183 99.1636 25.0183C98.9173 25.0183 98.7256 25.0895 98.5888 25.2318C98.4519 25.3687 98.3588 25.5247 98.3096 25.6999L97.3323 25.2975C97.3761 25.1497 97.4473 24.9992 97.5458 24.8459C97.6444 24.6871 97.7703 24.5475 97.9236 24.427C98.0769 24.3011 98.2575 24.1998 98.4656 24.1232C98.6791 24.0411 98.9173 24 99.1801 24C99.4648 24 99.7221 24.0438 99.952 24.1314C100.182 24.2135 100.376 24.3285 100.535 24.4763C100.694 24.6241 100.817 24.7993 100.905 25.0019C100.992 25.199 101.036 25.4125 101.036 25.6425C101.036 25.9928 100.948 26.3159 100.773 26.6115C100.604 26.9017 100.395 27.1727 100.149 27.4245L99.4429 28.1308C99.2567 28.3169 99.0459 28.525 98.8105 28.7549L98.8434 28.8042H101.118V29.7486H97.3816Z" fill="#999999"/>
<path d="M104.197 29.88C103.836 29.88 103.51 29.8061 103.22 29.6583C102.93 29.505 102.681 29.2969 102.473 29.0341C102.27 28.7713 102.114 28.462 102.004 28.1061C101.895 27.7448 101.84 27.3561 101.84 26.94C101.84 26.5239 101.895 26.1379 102.004 25.7821C102.114 25.4207 102.27 25.1087 102.473 24.8459C102.681 24.5831 102.93 24.3778 103.22 24.2299C103.51 24.0766 103.836 24 104.197 24C104.558 24 104.884 24.0766 105.174 24.2299C105.465 24.3778 105.711 24.5831 105.913 24.8459C106.122 25.1087 106.28 25.4207 106.39 25.7821C106.499 26.1379 106.554 26.5239 106.554 26.94C106.554 27.3561 106.499 27.7448 106.39 28.1061C106.28 28.462 106.122 28.7713 105.913 29.0341C105.711 29.2969 105.465 29.505 105.174 29.6583C104.884 29.8061 104.558 29.88 104.197 29.88ZM104.197 28.8617C104.394 28.8617 104.572 28.8151 104.731 28.7221C104.89 28.6235 105.024 28.4894 105.133 28.3197C105.248 28.1445 105.333 27.9392 105.388 27.7037C105.448 27.4683 105.478 27.2137 105.478 26.94C105.478 26.6608 105.448 26.4062 105.388 26.1763C105.333 25.9408 105.248 25.7383 105.133 25.5685C105.024 25.3934 104.89 25.2592 104.731 25.1661C104.572 25.0676 104.394 25.0183 104.197 25.0183C103.995 25.0183 103.814 25.0676 103.655 25.1661C103.496 25.2592 103.362 25.3934 103.253 25.5685C103.143 25.7383 103.058 25.9408 102.998 26.1763C102.943 26.4062 102.916 26.6608 102.916 26.94C102.916 27.2137 102.943 27.4683 102.998 27.7037C103.058 27.9392 103.143 28.1445 103.253 28.3197C103.362 28.4894 103.496 28.6235 103.655 28.7221C103.814 28.8151 103.995 28.8617 104.197 28.8617Z" fill="#999999"/>
<path d="M4.40178 12.1289C6.11515 12.1289 7.26457 11.2749 7.61906 9.74414H6.64152C6.36222 10.6895 5.54582 11.2373 4.40715 11.2373C2.87638 11.2373 1.90422 10.0234 1.90422 8.12207C1.90422 6.23682 2.88713 5.01221 4.40178 5.01221C5.50822 5.01221 6.39445 5.67822 6.64152 6.69336H7.61906C7.37199 5.14648 6.0883 4.12061 4.40178 4.12061C2.28019 4.12061 0.910564 5.68896 0.910564 8.12207C0.910564 10.5767 2.26408 12.1289 4.40178 12.1289ZM18.4186 12H19.4337L16.5763 4.24951H15.6203L12.7628 12H13.778L14.5568 9.78174H17.6398L18.4186 12ZM16.0822 5.42578H16.1144L17.3551 8.95996H14.8415L16.0822 5.42578ZM26.3607 2.06885C26.3607 3.01416 27.0429 3.6748 28.0258 3.6748C29.0087 3.6748 29.6908 3.01416 29.6908 2.06885H29.0302C29.0302 2.67041 28.6112 3.14307 28.0258 3.14307C27.4403 3.14307 27.0214 2.67041 27.0214 2.06885H26.3607ZM30.1688 12H31.1249V4.24951H30.1688L25.9794 10.437H25.8935V4.24951H24.9374V12H25.8935L30.0829 5.83398H30.1688V12ZM40.1735 12V5.11963H42.6173V4.24951H36.7628V5.11963H39.2067V12H40.1735ZM59.9679 7.82129V4.24951H59.0011V7.82129H58.9581L55.8536 4.24951H54.629L57.9484 7.97168L54.3229 12H55.569L58.9581 8.23486H59.0011V12H59.9679V8.23486H60.0109L63.3732 12H64.673L61.0153 7.96094L64.3238 4.24951H63.1261L60.0109 7.82129H59.9679ZM75.1395 12H76.1546L73.2972 4.24951H72.3412L69.4837 12H70.4989L71.2777 9.78174H74.3607L75.1395 12ZM72.8031 5.42578H72.8353L74.076 8.95996H71.5624L72.8031 5.42578ZM84.6339 12.1289C86.3473 12.1289 87.4967 11.2749 87.8512 9.74414H86.8736C86.5943 10.6895 85.7779 11.2373 84.6393 11.2373C83.1085 11.2373 82.1363 10.0234 82.1363 8.12207C82.1363 6.23682 83.1192 5.01221 84.6339 5.01221C85.7403 5.01221 86.6266 5.67822 86.8736 6.69336H87.8512C87.6041 5.14648 86.3204 4.12061 84.6339 4.12061C82.5123 4.12061 81.1427 5.68896 81.1427 8.12207C81.1427 10.5767 82.4962 12.1289 84.6339 12.1289ZM98.6507 12H99.6659L96.8084 4.24951H95.8524L92.995 12H94.0101L94.7889 9.78174H97.8719L98.6507 12ZM96.3143 5.42578H96.3465L97.5872 8.95996H95.0736L96.3143 5.42578ZM105.61 12.0537C106.749 12.0537 107.35 11.5005 108.086 9.78174L110.46 4.24951H109.456L107.425 9.27148H107.339L105.261 4.24951H104.23L106.878 10.3457C106.571 10.915 106.19 11.1567 105.61 11.1567C105.443 11.1567 105.288 11.1406 105.18 11.1138V11.9839C105.266 12.0269 105.433 12.0537 105.61 12.0537Z" fill="#AFAFAF"/>
</svg>
