<svg width="18" height="18" viewBox="0 0 18 18" fill="none" xmlns="http://www.w3.org/2000/svg">
<path d="M16.1792 13.9938L13.8497 12.0534C13.704 11.9319 13.379 11.9143 13.2207 12.0199L11.9266 12.8822C11.7909 12.9727 11.6313 13.0206 11.4682 13.0197C11.2161 13.0185 10.8163 12.9763 10.3158 12.8577C9.45067 12.6537 8.6325 12.2864 7.90525 11.7756C7.24989 11.3157 6.67938 10.7455 6.21911 10.0905C5.70825 9.36351 5.34098 8.54566 5.13704 7.68092C5.01835 7.18058 4.9762 6.78089 4.97497 6.52848C4.97412 6.36546 5.02201 6.20591 5.11248 6.07028L5.97519 4.77711C6.08283 4.61551 6.06564 4.29723 5.94164 4.14832L4.00013 1.81971C3.79591 1.57424 3.54462 1.57547 3.34327 1.82175L2.05698 3.39311C1.70297 3.82594 1.53477 4.69692 1.70093 5.22467C1.71085 5.25566 1.71891 5.28722 1.72507 5.31917C1.73735 5.38381 1.77623 5.53804 1.85317 5.77204C2.01505 6.25449 2.21173 6.72456 2.44168 7.17854C3.20208 8.70204 4.36518 10.3258 6.01735 11.9773C7.66951 13.6293 9.29385 14.7919 10.8179 15.5516C11.2721 15.7816 11.7423 15.9784 12.2249 16.1403C12.4594 16.2168 12.6137 16.2561 12.6784 16.2684C12.7169 16.2756 12.7547 16.2856 12.7918 16.2983C13.2911 16.4693 14.166 16.2954 14.6048 15.9366L16.1771 14.6508C16.4251 14.4479 16.4255 14.1991 16.1792 13.9938ZM12.3125 10.6584C13.0746 10.1503 14.1951 10.2112 14.8974 10.7962L17.2273 12.7366C18.2627 13.5994 18.2586 15.0628 17.2138 15.9174L15.6414 17.2028C14.7877 17.9015 13.3578 18.1944 12.3162 17.8647C12.1134 17.8183 11.913 17.7618 11.7158 17.6953C11.1573 17.5087 10.613 17.2818 10.0874 17.0162C8.40658 16.178 6.63778 14.9122 4.85956 13.1347C3.08176 11.3571 1.81511 9.58897 0.976953 7.9092C0.711301 7.38364 0.484246 6.83946 0.297588 6.28097C0.229998 6.08086 0.172762 5.8774 0.12611 5.67141C-0.184925 4.62124 0.096234 3.20452 0.789923 2.35686L2.07621 0.785494C2.9291 -0.25649 4.39547 -0.262626 5.25777 0.771994L7.19928 3.10061C7.78697 3.8059 7.84754 4.91948 7.3372 5.68491L6.63 6.74489C6.64924 6.91262 6.68157 7.1004 6.72945 7.30291C6.88598 7.9656 7.16753 8.59236 7.55901 9.14959C7.91031 9.64983 8.34581 10.0853 8.84612 10.4366C9.40372 10.8279 10.0309 11.1092 10.6939 11.2655C10.8965 11.3137 11.0839 11.3457 11.2517 11.3649L12.3125 10.6584Z" fill="#AAAAAA"/>
</svg>
