<svg width="18" height="18" viewBox="0 0 18 18" fill="none" xmlns="http://www.w3.org/2000/svg">
<path d="M1.45023 4.39486L2.45455 3.79186V2.04382C2.45519 1.50196 2.67073 0.982488 3.05388 0.599338C3.43703 0.216189 3.95651 0.000650233 4.49836 6.5618e-07H13.5016C13.7701 -0.000214541 14.036 0.0525035 14.284 0.155139C14.5321 0.257774 14.7575 0.408312 14.9473 0.598141C15.1371 0.78797 15.2877 1.01336 15.3903 1.26143C15.4929 1.50949 15.5457 1.77536 15.5455 2.04382V3.79186L16.5498 4.39486C17.379 4.89232 18 5.98745 18 6.95168V15.9558C17.9998 16.2245 17.9467 16.4906 17.8437 16.7388C17.7406 16.987 17.5897 17.2125 17.3995 17.4023C17.2092 17.5922 16.9835 17.7427 16.735 17.8452C16.4866 17.9478 16.2204 18.0004 15.9517 18H2.04832C0.918409 18 0 17.0828 0 15.9562V6.93082C0.009 5.97355 0.628773 4.88741 1.45023 4.39445V4.39486ZM2.45455 5.70027L2.29214 5.79764C1.95832 5.99809 1.63759 6.56223 1.63636 6.94841V7.3665C1.63636 7.7535 1.9575 8.31968 2.29214 8.52014L2.45455 8.61791V5.70027ZM15.5455 5.70027V8.61791L15.7079 8.52055C16.0425 8.31968 16.3636 7.7535 16.3636 7.3665V6.94841C16.3624 6.56223 16.0417 5.99809 15.7079 5.79764L15.5455 5.70027ZM16.3636 10.0354L9.42136 14.2016C9.29411 14.278 9.14845 14.3184 9 14.3184C8.85154 14.3184 8.70589 14.278 8.57863 14.2016L1.63636 10.035V15.9558C1.63636 16.1779 1.82168 16.3632 2.04832 16.3632H15.9517C16.0055 16.3636 16.0588 16.3534 16.1086 16.3331C16.1585 16.3128 16.2038 16.283 16.2421 16.2451C16.2803 16.2073 16.3108 16.1624 16.3316 16.1128C16.3525 16.0632 16.3634 16.01 16.3636 15.9562V10.035V10.0354ZM13.9091 2.04382C13.9093 1.99025 13.8989 1.93717 13.8785 1.88764C13.8581 1.8381 13.8281 1.7931 13.7902 1.75522C13.7524 1.71734 13.7073 1.68734 13.6578 1.66694C13.6083 1.64654 13.5552 1.63615 13.5016 1.63636H4.49836C4.27541 1.63636 4.09091 1.82045 4.09091 2.04382V9.59973L9 12.546L13.9091 9.59973V2.04382ZM6.54545 5.72727C6.32846 5.72727 6.12035 5.64107 5.96691 5.48763C5.81347 5.33419 5.72727 5.12609 5.72727 4.90909C5.72727 4.6921 5.81347 4.48399 5.96691 4.33055C6.12035 4.17711 6.32846 4.09091 6.54545 4.09091H11.4545C11.6715 4.09091 11.8796 4.17711 12.0331 4.33055C12.1865 4.48399 12.2727 4.6921 12.2727 4.90909C12.2727 5.12609 12.1865 5.33419 12.0331 5.48763C11.8796 5.64107 11.6715 5.72727 11.4545 5.72727H6.54545ZM6.54545 8.18182C6.32846 8.18182 6.12035 8.09562 5.96691 7.94218C5.81347 7.78874 5.72727 7.58063 5.72727 7.36364C5.72727 7.14664 5.81347 6.93853 5.96691 6.78509C6.12035 6.63166 6.32846 6.54545 6.54545 6.54545H11.4545C11.6715 6.54545 11.8796 6.63166 12.0331 6.78509C12.1865 6.93853 12.2727 7.14664 12.2727 7.36364C12.2727 7.58063 12.1865 7.78874 12.0331 7.94218C11.8796 8.09562 11.6715 8.18182 11.4545 8.18182H6.54545Z" fill="#AAAAAA"/>
</svg>
