<svg width="20" height="14" viewBox="0 0 20 14" fill="none" xmlns="http://www.w3.org/2000/svg">
<path d="M0 2.18575C0.00022962 1.89837 0.0570819 1.61386 0.167308 1.34846C0.277535 1.08306 0.438975 0.841986 0.642405 0.639004C0.845834 0.436021 1.08727 0.275111 1.35291 0.165469C1.61854 0.0558261 1.90318 -0.000400275 2.19056 2.14493e-06H17.0594C18.2678 2.14493e-06 19.25 0.980877 19.25 2.18575V11.8142C19.2498 12.1016 19.1929 12.3861 19.0827 12.6515C18.9725 12.9169 18.811 13.158 18.6076 13.361C18.4042 13.564 18.1627 13.7249 17.8971 13.8345C17.6314 13.9442 17.3468 14.0004 17.0594 14H2.19056C0.982187 14 0 13.0191 0 11.8142V2.18575ZM17.5 5.48231L10.0756 9.93781C9.93953 10.0196 9.78376 10.0628 9.625 10.0628C9.46623 10.0628 9.31046 10.0196 9.17437 9.93781L1.75 5.48188V11.8138C1.75 12.0514 1.94819 12.2496 2.19056 12.2496H17.0594C17.117 12.25 17.174 12.239 17.2273 12.2173C17.2806 12.1957 17.3291 12.1637 17.37 12.1233C17.4109 12.0828 17.4435 12.0347 17.4658 11.9817C17.4881 11.9287 17.4997 11.8718 17.5 11.8142V5.48188V5.48231ZM16.7987 3.86225C17.1587 3.64613 17.5 3.04413 17.5 2.62806V2.18619C17.5 2.07073 17.4542 1.95998 17.3727 1.87822C17.2912 1.79646 17.1806 1.75035 17.0651 1.75H2.18487C2.06942 1.75035 1.95881 1.79646 1.87729 1.87822C1.79577 1.95998 1.75 2.07073 1.75 2.18619V2.62806C1.75 3.04194 2.09344 3.64744 2.45131 3.86181L9.625 8.16725L16.7987 3.86225Z" fill="#AAAAAA"/>
</svg>
