<svg width="18" height="16" viewBox="0 0 18 16" fill="none" xmlns="http://www.w3.org/2000/svg">
<path fill-rule="evenodd" clip-rule="evenodd" d="M9.59002 12.594L6.99703 15.017C6.99703 15.017 6.79402 15.174 6.57202 15.076L7.06903 10.576L7.08603 10.589L7.09602 10.497C7.09602 10.497 14.368 3.8 14.666 3.515C14.964 3.23 14.864 3.169 14.864 3.169C14.884 2.823 14.328 3.169 14.328 3.169L4.69203 9.439L0.679025 8.055C0.679025 8.055 0.0630252 7.831 0.0030252 7.342C-0.0569748 6.854 0.699025 6.589 0.699025 6.589L16.652 0.177001C16.652 0.177001 17.964 -0.412999 17.964 0.564001L15.123 15.24C15.123 15.24 14.725 16.258 13.633 15.77L9.59002 12.594Z" fill="#0099E4"/>
</svg>
