<svg width="22" height="12" viewBox="0 0 22 12" fill="none" xmlns="http://www.w3.org/2000/svg">
<path fill-rule="evenodd" clip-rule="evenodd" d="M21.463 0.823C21.558 0.376 21.347 0.125 20.848 0.125H18.333C17.757 0.125 17.546 0.358 17.373 0.697C17.373 0.697 16.013 3.397 14.36 5.097C13.828 5.647 13.558 5.812 13.265 5.812C13.029 5.812 12.92 5.629 12.92 5.132V0.788C12.92 0.18 12.843 0.000999928 12.305 0.000999928H8.274C7.967 0.000999928 7.774 0.167 7.774 0.394C7.774 0.967 8.715 1.096 8.715 2.648V5.848C8.715 6.493 8.677 6.743 8.351 6.743C7.487 6.743 5.433 3.971 4.281 0.823C4.051 0.18 3.801 0 3.148 0H0.634C0.269 0 0 0.232 0 0.572C0 1.198 0.787 4.095 3.878 7.976C5.95 10.587 8.678 12 11.134 12C12.632 12 12.996 11.768 12.996 11.177V9.174C12.996 8.674 13.208 8.459 13.515 8.459C13.86 8.459 14.47 8.562 15.895 9.872C17.585 11.374 17.7 12 18.621 12H21.443C21.731 12 22 11.875 22 11.428C22 10.838 21.174 9.782 19.907 8.531C19.389 7.887 18.544 7.189 18.276 6.867C17.892 6.492 18.007 6.277 18.276 5.884C18.276 5.884 21.174 2.074 21.463 0.823Z" fill="#4876A7"/>
</svg>
