<svg width="20" height="15" viewBox="0 0 20 15" fill="none" xmlns="http://www.w3.org/2000/svg">
<path fill-rule="evenodd" clip-rule="evenodd" d="M19.654 2.413C19.41 1.268 18.54 0.424002 17.492 0.298001C15.012 1.49012e-06 12.502 -0.00199835 10.003 1.64928e-06C7.504 -0.000998351 4.993 1.49012e-06 2.513 0.298001C1.467 0.424002 0.597 1.268 0.353 2.413C0.00199991 4.043 0 5.822 0 7.5C0 9.178 5.96046e-08 10.957 0.348 12.587C0.593 13.731 1.463 14.576 2.51 14.702C4.99 15 7.5 15.002 10 15C12.499 15.001 15.009 15 17.488 14.702C18.535 14.576 19.405 13.732 19.65 12.587C19.999 10.957 20 9.178 20 7.5C20 5.822 20.003 4.043 19.654 2.413ZM8 11V4L14 7.51L8 11Z" fill="#FD0202"/>
</svg>
