<svg width="740" height="180" viewBox="0 0 740 180" fill="none" xmlns="http://www.w3.org/2000/svg">
<rect width="740" height="180" fill="#1954FF"/>
<rect width="740" height="180" fill="url(#paint0_linear)"/>
<path d="M740 0H0V180L740 0Z" fill="white" fill-opacity="0.05"/>
<path d="M35.1548 50.3384H37.8311C40.5732 50.3384 42.208 51.6304 42.208 53.8057C42.208 55.9019 40.4678 57.3389 37.9233 57.3389C35.313 57.3389 33.4937 56.0469 33.2827 54.043H30.9888C31.1602 57.2861 33.9419 59.4482 37.9497 59.4482C41.707 59.4482 44.647 57.0093 44.647 53.8716C44.647 51.2876 43.0913 49.4683 40.5601 49.1387V49.0332C42.6562 48.519 44.0933 46.7261 44.0933 44.6167C44.0933 41.6504 41.5488 39.5278 37.9893 39.5278C34.2056 39.5278 31.7402 41.5581 31.5029 44.854H33.8101C34.0078 42.8501 35.5371 41.6372 37.897 41.6372C40.2305 41.6372 41.6807 42.8633 41.6807 44.8276C41.6807 46.8184 40.0459 48.229 37.7256 48.229H35.1548V50.3384ZM48.022 62.6255V59H58.6611V62.6255H60.7969V57.1147H58.6216V45.2891H49.1821L48.6548 52.896C48.5229 54.7417 48.0352 56.4556 47.0332 57.1147H45.8862V62.6255H48.022ZM56.3408 57.1147H49.6567V57.0093C50.3027 56.1392 50.6587 54.6494 50.7773 52.9487L51.1992 47.1743H56.3408V57.1147ZM71.9634 55.0713C71.5811 56.3633 70.3022 57.2466 68.562 57.2466C66.0967 57.2466 64.5542 55.5195 64.5542 52.896V52.7642H74.3892V51.894C74.3892 47.7412 72.1084 45.0518 68.4038 45.0518C64.6201 45.0518 62.1943 47.939 62.1943 52.1973C62.1943 56.5083 64.5806 59.2373 68.5093 59.2373C71.502 59.2373 73.8223 57.4707 74.2178 55.0713H71.9634ZM68.3643 47.0425C70.5264 47.0425 71.9634 48.6772 72.0161 50.9712H64.5674C64.7124 48.6904 66.2153 47.0425 68.3643 47.0425ZM88.3638 49.7847C88.0737 47.3193 86.0303 45.0518 82.6025 45.0518C78.8188 45.0518 76.3008 47.8203 76.3008 52.1445C76.3008 56.561 78.832 59.2373 82.6289 59.2373C85.7402 59.2373 88.0342 57.3125 88.3901 54.5835H86.1357C85.7402 56.2314 84.5142 57.2202 82.6421 57.2202C80.269 57.2202 78.6343 55.335 78.6343 52.1445C78.6343 49.0332 80.2427 47.0688 82.6157 47.0688C84.6328 47.0688 85.793 48.2949 86.1226 49.7847H88.3638ZM90.75 59H95.6147C98.7524 59 100.77 57.1938 100.77 54.333C100.77 51.4722 98.7524 49.666 95.6147 49.666H93.0439V45.2891H90.75V59ZM95.5752 51.5513C97.3418 51.5513 98.502 52.6455 98.502 54.333C98.502 56.0073 97.355 57.1147 95.5752 57.1147H93.0439V51.5513H95.5752ZM111.079 59V49.2705H111.171L115.601 58.6045H117.354L121.784 49.2705H121.876V59H124.157V45.2891H121.481L116.577 55.9678H116.471L111.593 45.2891H108.812V59H111.079ZM133.069 59.2373C136.853 59.2373 139.411 56.5083 139.411 52.1445C139.411 47.7676 136.853 45.0518 133.069 45.0518C129.272 45.0518 126.715 47.7676 126.715 52.1445C126.715 56.5083 129.272 59.2373 133.069 59.2373ZM133.069 57.2202C130.644 57.2202 129.048 55.3745 129.048 52.1445C129.048 48.9146 130.644 47.0688 133.069 47.0688C135.495 47.0688 137.077 48.9146 137.077 52.1445C137.077 55.3745 135.495 57.2202 133.069 57.2202ZM150.801 47.1743V45.2891H141.981V59H144.275V47.1743H150.801ZM155.666 52.9487L156.088 47.1743H160.702V59H162.996V45.2891H154.018L153.491 52.896C153.319 55.4141 152.805 57.0093 151.447 57.0093C151.118 57.0093 150.867 56.9434 150.749 56.9038V58.9736C150.907 59.0396 151.17 59.1187 151.566 59.1187C154.453 59.1187 155.389 56.7324 155.666 52.9487ZM170.26 59.2373C172.106 59.2373 173.846 58.209 174.664 56.6401H174.716V59H176.892V49.521C176.892 46.792 174.861 45.0518 171.645 45.0518C168.401 45.0518 166.371 46.8711 166.213 49.2441H168.428C168.718 47.8994 169.825 47.0688 171.592 47.0688C173.49 47.0688 174.598 48.0708 174.598 49.7451V50.8921L170.669 51.1162C167.505 51.3008 165.699 52.7773 165.699 55.124C165.699 57.5894 167.531 59.2373 170.26 59.2373ZM170.774 57.2861C169.126 57.2861 168.032 56.4292 168.032 55.124C168.032 53.832 169.087 53.0146 170.933 52.896L174.598 52.6719V53.7925C174.598 55.77 172.937 57.2861 170.774 57.2861ZM191.473 59.2373C195.441 59.2373 197.88 56.5874 197.88 52.2764C197.88 48.1895 195.52 45.5791 191.815 45.5791C189.706 45.5791 187.992 46.4229 187.096 48.0444H186.99C187.544 43.9443 188.678 42.27 192.488 42.125L193.503 42.0854C195.085 42.0195 196.535 41.6768 196.97 41.2812V39.2773C196.192 39.686 194.716 39.9497 193.397 40.0156L192.382 40.0552C187.056 40.2529 185.052 43.4038 185.052 50.9712C185.052 56.416 187.267 59.2373 191.473 59.2373ZM191.473 57.207C188.889 57.207 187.399 55.4272 187.399 52.2764C187.399 49.2837 188.889 47.583 191.473 47.583C194.043 47.583 195.533 49.2837 195.533 52.2764C195.533 55.4272 194.043 57.207 191.473 57.207ZM212.171 59H214.438V45.2891H212.171V59ZM200.438 59H205.302C208.44 59 210.457 57.1938 210.457 54.333C210.457 51.4722 208.44 49.666 205.302 49.666H202.731V45.2891H200.438V59ZM205.263 51.5513C207.029 51.5513 208.189 52.6455 208.189 54.333C208.189 56.0073 207.042 57.1147 205.263 57.1147H202.731V51.5513H205.263ZM227.688 45.2891H216.561V47.1743H220.978V59H223.271V47.1743H227.688V45.2891ZM229.811 59H234.675C237.813 59 239.83 57.1938 239.83 54.333C239.83 51.4722 237.813 49.666 234.675 49.666H232.104V45.2891H229.811V59ZM234.636 51.5513C236.402 51.5513 237.562 52.6455 237.562 54.333C237.562 56.0073 236.416 57.1147 234.636 57.1147H232.104V51.5513H234.636ZM253.778 59C256.692 59 258.485 57.4839 258.485 55.0581C258.485 53.3838 257.351 52.1577 255.624 51.9204V51.8149C256.89 51.5513 257.878 50.2461 257.878 48.8354C257.878 46.6338 256.31 45.2891 253.739 45.2891H247.872V59H253.778ZM250.166 47.1479H253.396C254.833 47.1479 255.611 47.8335 255.611 49.0728C255.611 50.4043 254.78 51.0503 253.053 51.0503H250.166V47.1479ZM250.166 52.896H253.238C255.242 52.896 256.204 53.5815 256.204 55.0054C256.204 56.3896 255.308 57.1411 253.646 57.1411H250.166V52.896ZM265.129 59.2373C266.975 59.2373 268.715 58.209 269.533 56.6401H269.585V59H271.761V49.521C271.761 46.792 269.73 45.0518 266.514 45.0518C263.271 45.0518 261.24 46.8711 261.082 49.2441H263.297C263.587 47.8994 264.694 47.0688 266.461 47.0688C268.359 47.0688 269.467 48.0708 269.467 49.7451V50.8921L265.538 51.1162C262.374 51.3008 260.568 52.7773 260.568 55.124C260.568 57.5894 262.4 59.2373 265.129 59.2373ZM265.644 57.2861C263.996 57.2861 262.901 56.4292 262.901 55.124C262.901 53.832 263.956 53.0146 265.802 52.896L269.467 52.6719V53.7925C269.467 55.77 267.806 57.2861 265.644 57.2861ZM274.925 59H291.853V45.2891H289.559V57.1147H284.536V45.2891H282.242V57.1147H277.219V45.2891H274.925V59ZM299.09 59.2373C300.936 59.2373 302.676 58.209 303.494 56.6401H303.546V59H305.722V49.521C305.722 46.792 303.691 45.0518 300.475 45.0518C297.231 45.0518 295.201 46.8711 295.043 49.2441H297.258C297.548 47.8994 298.655 47.0688 300.422 47.0688C302.32 47.0688 303.428 48.0708 303.428 49.7451V50.8921L299.499 51.1162C296.335 51.3008 294.529 52.7773 294.529 55.124C294.529 57.5894 296.361 59.2373 299.09 59.2373ZM299.604 57.2861C297.957 57.2861 296.862 56.4292 296.862 55.124C296.862 53.832 297.917 53.0146 299.763 52.896L303.428 52.6719V53.7925C303.428 55.77 301.767 57.2861 299.604 57.2861ZM321.094 45.0518C319.103 45.0518 317.508 46.0669 316.664 47.6094H316.611V45.2891H314.436V63.5747H316.73V56.772H316.783C317.6 58.2749 319.182 59.2373 321.146 59.2373C324.601 59.2373 326.96 56.4424 326.96 52.1445C326.96 47.8467 324.587 45.0518 321.094 45.0518ZM320.646 57.2202C318.299 57.2202 316.717 55.2031 316.717 52.1445C316.717 49.0991 318.299 47.0688 320.646 47.0688C323.084 47.0688 324.614 49.0464 324.614 52.1445C324.614 55.2559 323.084 57.2202 320.646 57.2202ZM338.641 55.0713C338.259 56.3633 336.98 57.2466 335.24 57.2466C332.774 57.2466 331.232 55.5195 331.232 52.896V52.7642H341.067V51.894C341.067 47.7412 338.786 45.0518 335.082 45.0518C331.298 45.0518 328.872 47.939 328.872 52.1973C328.872 56.5083 331.258 59.2373 335.187 59.2373C338.18 59.2373 340.5 57.4707 340.896 55.0713H338.641ZM335.042 47.0425C337.204 47.0425 338.641 48.6772 338.694 50.9712H331.245C331.39 48.6904 332.893 47.0425 335.042 47.0425ZM346.037 52.4082L351.93 59H354.883L348.318 51.7754L354.699 45.2891H351.864L346.037 51.3535H345.932V45.2891H343.638V59H345.932V52.4082H346.037ZM360.354 52.9487L360.776 47.1743H365.391V59H367.685V45.2891H358.707L358.179 52.896C358.008 55.4141 357.494 57.0093 356.136 57.0093C355.806 57.0093 355.556 56.9434 355.437 56.9038V58.9736C355.595 59.0396 355.859 59.1187 356.254 59.1187C359.142 59.1187 360.078 56.7324 360.354 52.9487ZM374.949 59.2373C376.794 59.2373 378.535 58.209 379.352 56.6401H379.405V59H381.58V49.521C381.58 46.792 379.55 45.0518 376.333 45.0518C373.09 45.0518 371.06 46.8711 370.901 49.2441H373.116C373.406 47.8994 374.514 47.0688 376.28 47.0688C378.179 47.0688 379.286 48.0708 379.286 49.7451V50.8921L375.357 51.1162C372.193 51.3008 370.387 52.7773 370.387 55.124C370.387 57.5894 372.22 59.2373 374.949 59.2373ZM375.463 57.2861C373.815 57.2861 372.721 56.4292 372.721 55.124C372.721 53.832 373.775 53.0146 375.621 52.896L379.286 52.6719V53.7925C379.286 55.77 377.625 57.2861 375.463 57.2861ZM387.012 59V49.2705H387.104L391.534 58.6045H393.287L397.717 49.2705H397.809V59H400.09V45.2891H397.414L392.509 55.9678H392.404L387.526 45.2891H384.744V59H387.012ZM407.328 59.2373C409.173 59.2373 410.914 58.209 411.731 56.6401H411.784V59H413.959V49.521C413.959 46.792 411.929 45.0518 408.712 45.0518C405.469 45.0518 403.438 46.8711 403.28 49.2441H405.495C405.785 47.8994 406.893 47.0688 408.659 47.0688C410.558 47.0688 411.665 48.0708 411.665 49.7451V50.8921L407.736 51.1162C404.572 51.3008 402.766 52.7773 402.766 55.124C402.766 57.5894 404.599 59.2373 407.328 59.2373ZM407.842 57.2861C406.194 57.2861 405.1 56.4292 405.1 55.124C405.1 53.832 406.154 53.0146 408 52.896L411.665 52.6719V53.7925C411.665 55.77 410.004 57.2861 407.842 57.2861ZM418.573 62.7837L420.379 56.0732H417.94L416.662 62.7837H418.573ZM35.6807 88.1846C38.6235 88.1846 40.6128 86.062 40.6128 82.668C40.6128 79.2637 38.6235 77.1514 35.6807 77.1514C32.7275 77.1514 30.7383 79.2637 30.7383 82.668C30.7383 86.062 32.7275 88.1846 35.6807 88.1846ZM35.6807 86.6157C33.7939 86.6157 32.5532 85.1802 32.5532 82.668C32.5532 80.1558 33.7939 78.7202 35.6807 78.7202C37.5674 78.7202 38.7979 80.1558 38.7979 82.668C38.7979 85.1802 37.5674 86.6157 35.6807 86.6157ZM47.1855 88.1846C50.272 88.1846 52.1689 86.1235 52.1689 82.7705C52.1689 79.5918 50.3335 77.5615 47.4521 77.5615C45.8115 77.5615 44.4785 78.2178 43.7812 79.479H43.6992C44.1299 76.29 45.0117 74.9878 47.9751 74.875L48.7646 74.8442C49.9951 74.793 51.123 74.5264 51.4614 74.2188V72.6602C50.8564 72.978 49.708 73.1831 48.6826 73.2344L47.8931 73.2651C43.7505 73.4189 42.1919 75.8696 42.1919 81.7554C42.1919 85.9902 43.9146 88.1846 47.1855 88.1846ZM47.1855 86.6055C45.1758 86.6055 44.0171 85.2212 44.0171 82.7705C44.0171 80.4429 45.1758 79.1201 47.1855 79.1201C49.1851 79.1201 50.3438 80.4429 50.3438 82.7705C50.3438 85.2212 49.1851 86.6055 47.1855 86.6055ZM59.3467 77.1514C57.7983 77.1514 56.5576 77.9409 55.9014 79.1406H55.8604V77.3359H54.1685V91.5581H55.9526V86.2671H55.9937C56.6294 87.436 57.8599 88.1846 59.3877 88.1846C62.0742 88.1846 63.9097 86.0107 63.9097 82.668C63.9097 79.3252 62.064 77.1514 59.3467 77.1514ZM58.998 86.6157C57.1729 86.6157 55.9424 85.0469 55.9424 82.668C55.9424 80.2993 57.1729 78.7202 58.998 78.7202C60.895 78.7202 62.0845 80.2583 62.0845 82.668C62.0845 85.0879 60.895 86.6157 58.998 86.6157ZM69.0366 88.1846C70.4722 88.1846 71.8257 87.3848 72.4614 86.1646H72.5024V88H74.1943V80.6274C74.1943 78.5049 72.6152 77.1514 70.1133 77.1514C67.5908 77.1514 66.0117 78.5664 65.8887 80.4121H67.6113C67.8369 79.3662 68.6982 78.7202 70.0723 78.7202C71.5488 78.7202 72.4102 79.4995 72.4102 80.8018V81.6938L69.3545 81.8682C66.8936 82.0117 65.4888 83.1602 65.4888 84.9854C65.4888 86.9028 66.9141 88.1846 69.0366 88.1846ZM69.4365 86.667C68.1548 86.667 67.3037 86.0005 67.3037 84.9854C67.3037 83.9805 68.124 83.3447 69.5596 83.2524L72.4102 83.0781V83.9497C72.4102 85.4878 71.1182 86.667 69.4365 86.667ZM76.6553 88H89.8521V90.9224H91.5645V86.5234H89.8213V77.3359H88.0371V86.5337H84.1304V77.3359H82.3462V86.5337H78.4395V77.3359H76.6553V88ZM96.2505 88.1846C97.686 88.1846 99.0396 87.3848 99.6753 86.1646H99.7163V88H101.408V80.6274C101.408 78.5049 99.8291 77.1514 97.3271 77.1514C94.8047 77.1514 93.2256 78.5664 93.1025 80.4121H94.8252C95.0508 79.3662 95.9121 78.7202 97.2861 78.7202C98.7627 78.7202 99.624 79.4995 99.624 80.8018V81.6938L96.5684 81.8682C94.1074 82.0117 92.7026 83.1602 92.7026 84.9854C92.7026 86.9028 94.1279 88.1846 96.2505 88.1846ZM96.6504 86.667C95.3687 86.667 94.5176 86.0005 94.5176 84.9854C94.5176 83.9805 95.3379 83.3447 96.7734 83.2524L99.624 83.0781V83.9497C99.624 85.4878 98.332 86.667 96.6504 86.667ZM105.069 72.7217C105.069 74.6084 106.412 75.9004 108.371 75.9004C110.329 75.9004 111.672 74.6084 111.672 72.7217H110.36C110.36 73.9111 109.591 74.8442 108.371 74.8442C107.15 74.8442 106.381 73.9111 106.381 72.7217H105.069ZM105.633 88L110.944 80.0737H111.026V88H112.811V77.3359H111.047L105.735 85.2622H105.653V77.3359H103.869V88H105.633ZM123.116 77.3359H114.461V78.8022H117.896V88H119.681V78.8022H123.116V77.3359ZM131.647 84.9443C131.35 85.9492 130.355 86.6362 129.001 86.6362C127.084 86.6362 125.884 85.293 125.884 83.2524V83.1499H133.534V82.4731C133.534 79.2432 131.76 77.1514 128.878 77.1514C125.936 77.1514 124.049 79.397 124.049 82.709C124.049 86.062 125.905 88.1846 128.96 88.1846C131.288 88.1846 133.093 86.8105 133.4 84.9443H131.647ZM128.848 78.6997C130.529 78.6997 131.647 79.9712 131.688 81.7554H125.895C126.007 79.9814 127.176 78.6997 128.848 78.6997ZM144.403 80.8325C144.177 78.915 142.588 77.1514 139.922 77.1514C136.979 77.1514 135.021 79.3047 135.021 82.668C135.021 86.103 136.989 88.1846 139.942 88.1846C142.362 88.1846 144.146 86.6875 144.423 84.5649H142.67C142.362 85.8467 141.409 86.6157 139.953 86.6157C138.107 86.6157 136.835 85.1494 136.835 82.668C136.835 80.248 138.086 78.7202 139.932 78.7202C141.501 78.7202 142.403 79.6738 142.66 80.8325H144.403ZM146.259 88H150.042C152.483 88 154.052 86.5952 154.052 84.3701C154.052 82.145 152.483 80.7402 150.042 80.7402H148.043V77.3359H146.259V88ZM150.012 82.2065C151.386 82.2065 152.288 83.0576 152.288 84.3701C152.288 85.6724 151.396 86.5337 150.012 86.5337H148.043V82.2065H150.012ZM167.208 88H169.002V77.3359H160.307V88H162.091V78.8022H167.208V88ZM175.934 88.1846C178.876 88.1846 180.866 86.062 180.866 82.668C180.866 79.2637 178.876 77.1514 175.934 77.1514C172.98 77.1514 170.991 79.2637 170.991 82.668C170.991 86.062 172.98 88.1846 175.934 88.1846ZM175.934 86.6157C174.047 86.6157 172.806 85.1802 172.806 82.668C172.806 80.1558 174.047 78.7202 175.934 78.7202C177.82 78.7202 179.051 80.1558 179.051 82.668C179.051 85.1802 177.82 86.6157 175.934 86.6157ZM194.175 88H195.959V77.3359H194.175V81.7349H188.956V77.3359H187.172V88H188.956V83.2012H194.175V88ZM202.901 88.1846C205.844 88.1846 207.833 86.062 207.833 82.668C207.833 79.2637 205.844 77.1514 202.901 77.1514C199.948 77.1514 197.959 79.2637 197.959 82.668C197.959 86.062 199.948 88.1846 202.901 88.1846ZM202.901 86.6157C201.015 86.6157 199.774 85.1802 199.774 82.668C199.774 80.1558 201.015 78.7202 202.901 78.7202C204.788 78.7202 206.019 80.1558 206.019 82.668C206.019 85.1802 204.788 86.6157 202.901 86.6157ZM211.597 88V80.4326H211.668L215.114 87.6924H216.478L219.923 80.4326H219.995V88H221.769V77.3359H219.687L215.873 85.6416H215.791L211.997 77.3359H209.833V88H211.597ZM231.356 84.9443C231.059 85.9492 230.064 86.6362 228.71 86.6362C226.793 86.6362 225.593 85.293 225.593 83.2524V83.1499H233.243V82.4731C233.243 79.2432 231.469 77.1514 228.587 77.1514C225.645 77.1514 223.758 79.397 223.758 82.709C223.758 86.062 225.614 88.1846 228.669 88.1846C230.997 88.1846 232.802 86.8105 233.109 84.9443H231.356ZM228.557 78.6997C230.238 78.6997 231.356 79.9712 231.397 81.7554H225.604C225.716 79.9814 226.885 78.6997 228.557 78.6997ZM240.431 77.1514C238.882 77.1514 237.642 77.9409 236.985 79.1406H236.944V77.3359H235.252V91.5581H237.037V86.2671H237.078C237.713 87.436 238.944 88.1846 240.472 88.1846C243.158 88.1846 244.994 86.0107 244.994 82.668C244.994 79.3252 243.148 77.1514 240.431 77.1514ZM240.082 86.6157C238.257 86.6157 237.026 85.0469 237.026 82.668C237.026 80.2993 238.257 78.7202 240.082 78.7202C241.979 78.7202 243.168 80.2583 243.168 82.668C243.168 85.0879 241.979 86.6157 240.082 86.6157ZM247.588 91.9888C249.516 91.9888 250.397 91.2402 251.31 88.7485L255.504 77.3359H253.627L250.674 86.2158H250.644L247.69 77.3359H245.783L249.721 88.0103L249.475 88.7588C249.064 89.9995 248.511 90.4814 247.516 90.4814C247.291 90.4814 247.014 90.4712 246.819 90.4302V91.9272C247.014 91.9683 247.373 91.9888 247.588 91.9888ZM258.519 79.8379C259.175 79.8379 259.688 79.3252 259.688 78.6689C259.688 78.0127 259.175 77.5 258.519 77.5C257.862 77.5 257.35 78.0127 257.35 78.6689C257.35 79.3252 257.862 79.8379 258.519 79.8379ZM258.519 88.1025C259.175 88.1025 259.688 87.5898 259.688 86.9336C259.688 86.2773 259.175 85.7646 258.519 85.7646C257.862 85.7646 257.35 86.2773 257.35 86.9336C257.35 87.5898 257.862 88.1025 258.519 88.1025ZM272.669 82.9961H276.791V81.335H272.669V77.0078H271.008V81.335H266.886V82.9961H271.008V87.3232H272.669V82.9961ZM280.236 88H282.174L288.757 74.916V73.2036H278.965V74.8442H286.932V74.8853L280.236 88ZM296.027 88H297.965L304.548 74.916V73.2036H294.756V74.8442H302.723V74.8853L296.027 88ZM307.512 88H309.45L316.033 74.916V73.2036H306.24V74.8442H314.208V74.8853L307.512 88ZM323.231 88.2461C326.369 88.2461 328.604 86.4824 328.604 84.001C328.604 82.1655 327.333 80.6479 325.415 80.1968V80.1558C327.056 79.6328 328.05 78.3921 328.05 76.854C328.05 74.5981 326.03 72.9575 323.231 72.9575C320.452 72.9575 318.401 74.6084 318.401 76.8438C318.401 78.4023 319.417 79.6533 321.047 80.1558V80.1968C319.14 80.6377 317.868 82.1553 317.868 84.001C317.868 86.4722 320.104 88.2461 323.231 88.2461ZM323.231 79.4688C321.467 79.4688 320.237 78.4536 320.237 77.0181C320.237 75.5723 321.467 74.5469 323.231 74.5469C324.995 74.5469 326.225 75.562 326.225 77.0181C326.225 78.4536 324.984 79.4688 323.231 79.4688ZM323.231 86.6362C321.201 86.6362 319.745 85.4775 319.745 83.8677C319.745 82.2476 321.201 81.0889 323.231 81.0889C325.271 81.0889 326.717 82.2373 326.717 83.8677C326.717 85.4775 325.271 86.6362 323.231 86.6362ZM340.396 88.2563C343.431 88.2563 345.636 86.1235 345.636 83.2012C345.636 80.3916 343.544 78.3101 340.724 78.3101C338.714 78.3101 337.197 79.3765 336.592 80.7095H336.561C336.623 76.772 338.027 74.5776 340.499 74.5776C342.016 74.5776 343.124 75.3467 343.554 76.6797H345.431C344.969 74.4136 343.031 72.9473 340.519 72.9473C336.899 72.9473 334.777 75.8696 334.777 80.853C334.777 86.3594 337.668 88.2563 340.396 88.2563ZM340.375 86.6157C338.479 86.6157 337.002 85.1084 337.002 83.2114C337.002 81.3247 338.448 79.9302 340.406 79.9302C342.365 79.9302 343.759 81.3247 343.759 83.2627C343.759 85.1289 342.262 86.6157 340.375 86.6157ZM347.522 77.4795H349.307C349.307 75.8184 350.681 74.5674 352.506 74.5674C354.198 74.5674 355.285 75.7261 355.285 77.1821C355.285 78.4126 354.823 79.2124 352.824 81.2939L347.615 86.7285V88H357.376V86.3594H350.147V86.3184L353.665 82.709C356.382 79.9199 357.13 78.6997 357.13 77.0693C357.13 74.8237 355.244 72.9575 352.506 72.9575C349.655 72.9575 347.522 74.8853 347.522 77.4795ZM360.36 88H362.298L368.881 74.916V73.2036H359.089V74.8442H367.056V74.8853L360.36 88ZM380.386 88.2461C383.473 88.2461 385.657 86.1646 385.657 83.1909C385.657 80.3506 383.606 78.2896 380.766 78.2896C379.33 78.2896 378.1 78.8228 377.402 79.8174H377.361L377.864 74.8442H384.816V73.2036H376.346L375.587 81.6426H377.218C377.905 80.4531 379.033 79.8789 380.438 79.8789C382.406 79.8789 383.811 81.2837 383.811 83.2422C383.811 85.2314 382.417 86.626 380.407 86.626C378.633 86.626 377.29 85.5391 377.125 83.96H375.311C375.464 86.4824 377.556 88.2461 380.386 88.2461ZM391.358 88H393.142V73.2036H391.337L387.4 76.0337V77.8896L391.317 75.1621H391.358V88ZM403.929 88H405.713V84.9238H407.805V83.3037H405.713V73.2036H402.986C399.489 78.2178 397.756 80.9146 396.495 83.2524V84.9238H403.929V88ZM398.32 83.2627C399.489 81.2119 401.099 78.7407 403.898 74.7417H403.929V83.3037H398.32V83.2627ZM409.497 77.4795H411.281C411.281 75.8184 412.655 74.5674 414.48 74.5674C416.172 74.5674 417.259 75.7261 417.259 77.1821C417.259 78.4126 416.798 79.2124 414.798 81.2939L409.589 86.7285V88H419.351V86.3594H412.122V86.3184L415.639 82.709C418.356 79.9199 419.105 78.6997 419.105 77.0693C419.105 74.8237 417.218 72.9575 414.48 72.9575C411.63 72.9575 409.497 74.8853 409.497 77.4795Z" fill="white"/>
<g style="mix-blend-mode:overlay" opacity="0.5">
<path d="M30 136H34.9799V137.583H30V136Z" fill="white"/>
<path d="M45.4378 136H49.9197V137.583H45.4378V136Z" fill="white"/>
<path d="M45.4378 139H49.9197V140.583H45.4378V139Z" fill="white"/>
<path d="M45.4378 142.083H49.9197V143.667H45.4378V142.083Z" fill="white"/>
<path d="M45.4378 145.167H49.9197V146.75H45.4378V145.167Z" fill="white"/>
<path d="M45.4378 154.417H49.9197V156H45.4378V154.417Z" fill="white"/>
<path d="M30 139H37.1379V140.583H30V139Z" fill="white"/>
<path d="M30 142.083H39.6278V143.667H30V142.083Z" fill="white"/>
<path d="M30 145.167H34.4819V146.75H30V145.167Z" fill="white"/>
<path d="M38.7979 145.167H42.6158V146.75H38.7979V145.167Z" fill="white"/>
<path d="M30 148.25H44.7738V149.833H30V148.25Z" fill="white"/>
<path d="M30 151.333H34.4819V152.917H30V151.333Z" fill="white"/>
<path d="M43.2798 151.333H47.5127V152.917H43.2798V151.333Z" fill="white"/>
<path d="M30 154.417H34.4819V156H30V154.417Z" fill="white"/>
<path d="M70.052 153.5H74.551L69.8629 138.5H64.5676L59.8795 153.5H64.1794L64.926 150.365H69.3055L70.052 153.5ZM67.0759 142.097H67.1555L68.5391 147.361H65.6924L67.0759 142.097Z" fill="white"/>
<path d="M80.0653 153.5V138.5H75.845V153.5H80.0653Z" fill="white"/>
<path d="M89.5112 153.5V142.137H93.2935V138.5H81.5085V142.137H85.2909V153.5H89.5112Z" fill="white"/>
<path d="M98.7182 153.5V145.613H98.7978L104.382 153.5H107.617V138.5H103.635V146.266H103.556L98.0115 138.5H94.7367V153.5H98.7182Z" fill="white"/>
<path d="M119.74 149.863H113.828V147.532H119.372V144.478H113.828V142.137H119.74V138.5H109.607V153.5H119.74V149.863Z" fill="white"/>
<path d="M130.938 144.95H131.017L133.157 153.5H137.139L140.841 138.5H136.482L134.83 147.914H134.75L132.61 138.5H129.345L127.205 147.914H127.126L125.473 138.5H121.114L124.816 153.5H128.798L130.938 144.95Z" fill="white"/>
<path d="M141.538 148.858C141.548 151.822 144.007 153.5 147.729 153.5C151.691 153.5 154 151.601 154 148.617C154 146.266 152.547 144.99 149.461 144.428L148.018 144.166C146.585 143.905 145.968 143.594 145.968 142.941C145.968 142.288 146.565 141.765 147.739 141.765C148.894 141.765 149.79 142.278 149.82 143.162H153.701C153.681 140.298 151.532 138.5 147.689 138.5C144.275 138.5 141.787 140.339 141.787 143.252C141.787 145.503 143.35 146.959 146.206 147.472L147.65 147.733C149.262 148.024 149.82 148.316 149.82 148.999C149.82 149.712 149.043 150.235 147.779 150.235C146.585 150.235 145.579 149.732 145.42 148.858H141.538Z" fill="white"/>
</g>
<defs>
<linearGradient id="paint0_linear" x1="0" y1="0" x2="740" y2="180" gradientUnits="userSpaceOnUse">
<stop stop-color="white" stop-opacity="0.19"/>
<stop offset="1" stop-color="white" stop-opacity="0"/>
</linearGradient>
</defs>
</svg>
