<svg width="30" height="30" viewBox="0 0 30 30" fill="none" xmlns="http://www.w3.org/2000/svg">
<path d="M0 0H7.5V2.375H0V0Z" fill="#1954FF"/>
<path d="M23.25 0H30V2.375H23.25V0Z" fill="#1954FF"/>
<path d="M23.25 4.5H30V6.875H23.25V4.5Z" fill="#1954FF"/>
<path d="M23.25 9.125H30V11.5H23.25V9.125Z" fill="#1954FF"/>
<path d="M23.25 13.75H30V16.125H23.25V13.75Z" fill="#1954FF"/>
<path d="M23.25 27.625H30V30H23.25V27.625Z" fill="#1954FF"/>
<path d="M0 4.5H10.75V6.875H0V4.5Z" fill="#1954FF"/>
<path d="M0 9.125H14.5V11.5H0V9.125Z" fill="#1954FF"/>
<path d="M0 13.75H6.75V16.125H0V13.75Z" fill="#1954FF"/>
<path d="M13.25 13.75H19V16.125H13.25V13.75Z" fill="#1954FF"/>
<path d="M0 18.375H22.25V20.75H0V18.375Z" fill="#1954FF"/>
<path d="M0 23H6.75V25.375H0V23Z" fill="#1954FF"/>
<path d="M20 23H26.375V25.375H20V23Z" fill="#1954FF"/>
<path d="M0 27.625H6.75V30H0V27.625Z" fill="#1954FF"/>
</svg>
