<svg width="40" height="40" viewBox="0 0 40 40" fill="none" xmlns="http://www.w3.org/2000/svg">
<path d="M0 0H10V3.16667H0V0Z" fill="#1954FF"/>
<path d="M31 0H40V3.16667H31V0Z" fill="#1954FF"/>
<path d="M31 6H40V9.16667H31V6Z" fill="#1954FF"/>
<path d="M31 12.1667H40V15.3333H31V12.1667Z" fill="#1954FF"/>
<path d="M31 18.3333H40V21.5H31V18.3333Z" fill="#1954FF"/>
<path d="M31 36.8333H40V40H31V36.8333Z" fill="#1954FF"/>
<path d="M0 6H14.3333V9.16667H0V6Z" fill="#1954FF"/>
<path d="M0 12.1667H19.3333V15.3333H0V12.1667Z" fill="#1954FF"/>
<path d="M0 18.3333H9V21.5H0V18.3333Z" fill="#1954FF"/>
<path d="M17.6667 18.3333H25.3333V21.5H17.6667V18.3333Z" fill="#1954FF"/>
<path d="M0 24.5H29.6667V27.6667H0V24.5Z" fill="#1954FF"/>
<path d="M0 30.6667H9V33.8333H0V30.6667Z" fill="#1954FF"/>
<path d="M26.6667 30.6667H35.1667V33.8333H26.6667V30.6667Z" fill="#1954FF"/>
<path d="M0 36.8333H9V40H0V36.8333Z" fill="#1954FF"/>
</svg>
