<svg width="189" height="30" viewBox="0 0 189 30" fill="none" xmlns="http://www.w3.org/2000/svg">
<path d="M20.427 30H29.4613L20.0473 0H9.41402L0 30H8.63452L10.1336 23.7307H18.928L20.427 30ZM14.4508 7.19357H14.6107L17.389 17.7227H11.6726L14.4508 7.19357Z" fill="#222222"/>
<path d="M40.5343 30V0H32.0596V30H40.5343Z" fill="#222222"/>
<path d="M59.5022 30V7.27394H67.0974V0H43.4324V7.27394H51.0276V30H59.5022Z" fill="#222222"/>
<path d="M77.9905 30V14.2264H78.1504L89.3633 30H95.8591V0H87.8642V15.5325H87.7043L76.5714 0H69.9956V30H77.9905Z" fill="#222222"/>
<path d="M120.204 22.7261H108.331V18.0643H119.464V11.9558H108.331V7.27394H120.204V0H99.8566V30H120.204V22.7261Z" fill="#222222"/>
<path d="M142.689 12.9002H142.849L147.147 30H155.142L162.577 0H153.822L150.504 18.8279H150.345L146.047 0H139.491L135.194 18.8279H135.034L131.716 0H122.962L130.397 30H138.392L142.689 12.9002Z" fill="#222222"/>
<path d="M163.976 20.7167C163.996 26.6443 168.933 30 176.408 30C184.363 30 189 26.2023 189 20.2344C189 15.5325 186.082 12.9806 179.886 11.8553L176.988 11.3329C174.109 10.8104 172.87 10.1875 172.87 8.88145C172.87 7.57535 174.069 6.53048 176.428 6.53048C178.747 6.53048 180.545 7.55526 180.605 9.32351H188.4C188.36 3.59678 184.043 0 176.328 0C169.472 0 164.476 3.67716 164.476 9.50435C164.476 14.0054 167.614 16.919 173.35 17.9437L176.248 18.4662C179.486 19.0489 180.605 19.6316 180.605 20.998C180.605 22.4246 179.046 23.4695 176.508 23.4695C174.109 23.4695 172.091 22.4648 171.771 20.7167H163.976Z" fill="#222222"/>
</svg>
