<svg width="249" height="40" viewBox="0 0 249 40" fill="none" xmlns="http://www.w3.org/2000/svg">
<path d="M0 0H10V3.16667H0V0Z" fill="#1954FF"/>
<path d="M31 0H40V3.16667H31V0Z" fill="#1954FF"/>
<path d="M31 6H40V9.16667H31V6Z" fill="#1954FF"/>
<path d="M31 12.1667H40V15.3333H31V12.1667Z" fill="#1954FF"/>
<path d="M31 18.3333H40V21.5H31V18.3333Z" fill="#1954FF"/>
<path d="M31 36.8333H40V40H31V36.8333Z" fill="#1954FF"/>
<path d="M0 6H14.3333V9.16667H0V6Z" fill="#1954FF"/>
<path d="M0 12.1667H19.3333V15.3333H0V12.1667Z" fill="#1954FF"/>
<path d="M0 18.3333H9V21.5H0V18.3333Z" fill="#1954FF"/>
<path d="M17.6667 18.3333H25.3333V21.5H17.6667V18.3333Z" fill="#1954FF"/>
<path d="M0 24.5H29.6667V27.6667H0V24.5Z" fill="#1954FF"/>
<path d="M0 30.6667H9V33.8333H0V30.6667Z" fill="#1954FF"/>
<path d="M26.6667 30.6667H35.1667V33.8333H26.6667V30.6667Z" fill="#1954FF"/>
<path d="M0 36.8333H9V40H0V36.8333Z" fill="#1954FF"/>
<path d="M80.427 35H89.4613L80.0473 5H69.414L60 35H68.6345L70.1336 28.7307H78.928L80.427 35ZM74.4508 12.1936H74.6107L77.389 22.7227H71.6726L74.4508 12.1936Z" fill="#222222"/>
<path d="M100.534 35V5H92.0596V35H100.534Z" fill="#222222"/>
<path d="M119.502 35V12.2739H127.097V5H103.432V12.2739H111.028V35H119.502Z" fill="#222222"/>
<path d="M137.99 35V19.2264H138.15L149.363 35H155.859V5H147.864V20.5325H147.704L136.571 5H129.996V35H137.99Z" fill="#222222"/>
<path d="M180.204 27.7261H168.331V23.0643H179.464V16.9558H168.331V12.2739H180.204V5H159.857V35H180.204V27.7261Z" fill="#222222"/>
<path d="M202.689 17.9002H202.849L207.147 35H215.142L222.577 5H213.822L210.504 23.8279H210.345L206.047 5H199.491L195.194 23.8279H195.034L191.716 5H182.962L190.397 35H198.392L202.689 17.9002Z" fill="#222222"/>
<path d="M223.976 25.7167C223.996 31.6443 228.933 35 236.408 35C244.363 35 249 31.2023 249 25.2344C249 20.5325 246.082 17.9806 239.886 16.8553L236.988 16.3329C234.109 15.8104 232.87 15.1875 232.87 13.8814C232.87 12.5754 234.069 11.5305 236.428 11.5305C238.747 11.5305 240.545 12.5553 240.605 14.3235H248.4C248.36 8.59678 244.043 5 236.328 5C229.472 5 224.476 8.67716 224.476 14.5044C224.476 19.0054 227.614 21.919 233.35 22.9437L236.248 23.4662C239.486 24.0489 240.605 24.6316 240.605 25.998C240.605 27.4246 239.046 28.4695 236.508 28.4695C234.109 28.4695 232.091 27.4648 231.771 25.7167H223.976Z" fill="#222222"/>
</svg>
